<mxfile host="app.diagrams.net" modified="2024-05-19T18:15:06.876Z" agent="Mozilla/5.0 (Windows NT 10.0; Win64; x64) AppleWebKit/537.36 (KHTML, like Gecko) Chrome/123.0.0.0 Safari/537.36 OPR/109.0.0.0" etag="9-nnUgg5IKFxqfYT-yfc" version="24.4.4" type="github">
  <diagram name="PÃ¡gina-1" id="MuoJyKg8qo2By2JafhDk">
    <mxGraphModel dx="1536" dy="1331" grid="0" gridSize="10" guides="1" tooltips="1" connect="1" arrows="1" fold="1" page="0" pageScale="1" pageWidth="827" pageHeight="1169" math="0" shadow="0">
      <root>
        <mxCell id="0" />
        <mxCell id="1" parent="0" />
        <mxCell id="j3iOtMdaD4tU8map6Iq3-1" value="Telefone" style="rounded=1;arcSize=10;whiteSpace=wrap;html=1;align=center;" vertex="1" parent="1">
          <mxGeometry x="343" y="-142" width="100" height="40" as="geometry" />
        </mxCell>
        <mxCell id="j3iOtMdaD4tU8map6Iq3-22" style="edgeStyle=none;curved=1;rounded=0;orthogonalLoop=1;jettySize=auto;html=1;entryX=0;entryY=0.5;entryDx=0;entryDy=0;fontSize=12;startSize=8;endSize=8;" edge="1" parent="1" source="j3iOtMdaD4tU8map6Iq3-2" target="j3iOtMdaD4tU8map6Iq3-20">
          <mxGeometry relative="1" as="geometry" />
        </mxCell>
        <mxCell id="j3iOtMdaD4tU8map6Iq3-2" value="Cliente" style="rounded=1;arcSize=10;whiteSpace=wrap;html=1;align=center;" vertex="1" parent="1">
          <mxGeometry x="36" y="-142" width="100" height="40" as="geometry" />
        </mxCell>
        <mxCell id="j3iOtMdaD4tU8map6Iq3-3" value="Codigo" style="ellipse;whiteSpace=wrap;html=1;align=center;fontStyle=4;" vertex="1" parent="1">
          <mxGeometry x="36" y="-100" width="100" height="40" as="geometry" />
        </mxCell>
        <mxCell id="j3iOtMdaD4tU8map6Iq3-4" value="Numero" style="ellipse;whiteSpace=wrap;html=1;align=center;" vertex="1" parent="1">
          <mxGeometry x="345" y="-102" width="100" height="40" as="geometry" />
        </mxCell>
        <mxCell id="j3iOtMdaD4tU8map6Iq3-5" value="Nome" style="ellipse;whiteSpace=wrap;html=1;align=center;" vertex="1" parent="1">
          <mxGeometry x="36" y="-58" width="100" height="40" as="geometry" />
        </mxCell>
        <mxCell id="j3iOtMdaD4tU8map6Iq3-6" value="Complemento" style="ellipse;whiteSpace=wrap;html=1;align=center;" vertex="1" parent="1">
          <mxGeometry x="36" y="26" width="100" height="40" as="geometry" />
        </mxCell>
        <mxCell id="j3iOtMdaD4tU8map6Iq3-7" value="Numero" style="ellipse;whiteSpace=wrap;html=1;align=center;" vertex="1" parent="1">
          <mxGeometry x="38" y="-16" width="100" height="40" as="geometry" />
        </mxCell>
        <mxCell id="j3iOtMdaD4tU8map6Iq3-19" style="edgeStyle=none;curved=1;rounded=0;orthogonalLoop=1;jettySize=auto;html=1;entryX=0;entryY=0.5;entryDx=0;entryDy=0;fontSize=12;startSize=8;endSize=8;" edge="1" parent="1" source="j3iOtMdaD4tU8map6Iq3-8" target="j3iOtMdaD4tU8map6Iq3-16">
          <mxGeometry relative="1" as="geometry" />
        </mxCell>
        <mxCell id="j3iOtMdaD4tU8map6Iq3-8" value="Endereco" style="whiteSpace=wrap;html=1;align=center;" vertex="1" parent="1">
          <mxGeometry x="-249" y="-142" width="100" height="40" as="geometry" />
        </mxCell>
        <mxCell id="j3iOtMdaD4tU8map6Iq3-10" value="Logadouro" style="ellipse;whiteSpace=wrap;html=1;align=center;fontStyle=4;" vertex="1" parent="1">
          <mxGeometry x="-247" y="-58" width="100" height="40" as="geometry" />
        </mxCell>
        <mxCell id="j3iOtMdaD4tU8map6Iq3-11" value="Bairro" style="ellipse;whiteSpace=wrap;html=1;align=center;fontStyle=4;" vertex="1" parent="1">
          <mxGeometry x="-247" y="-100" width="100" height="40" as="geometry" />
        </mxCell>
        <mxCell id="j3iOtMdaD4tU8map6Iq3-12" value="TipoLogadouro" style="ellipse;whiteSpace=wrap;html=1;align=center;fontStyle=4;" vertex="1" parent="1">
          <mxGeometry x="-249" y="-16" width="100" height="40" as="geometry" />
        </mxCell>
        <mxCell id="j3iOtMdaD4tU8map6Iq3-13" value="Estado" style="ellipse;whiteSpace=wrap;html=1;align=center;fontStyle=4;" vertex="1" parent="1">
          <mxGeometry x="-247" y="66" width="100" height="40" as="geometry" />
        </mxCell>
        <mxCell id="j3iOtMdaD4tU8map6Iq3-14" value="Cidade" style="ellipse;whiteSpace=wrap;html=1;align=center;fontStyle=4;" vertex="1" parent="1">
          <mxGeometry x="-247" y="26" width="100" height="40" as="geometry" />
        </mxCell>
        <mxCell id="j3iOtMdaD4tU8map6Iq3-15" value="CEP" style="ellipse;whiteSpace=wrap;html=1;align=center;" vertex="1" parent="1">
          <mxGeometry x="-247" y="109" width="100" height="40" as="geometry" />
        </mxCell>
        <mxCell id="j3iOtMdaD4tU8map6Iq3-17" style="edgeStyle=none;curved=1;rounded=0;orthogonalLoop=1;jettySize=auto;html=1;fontSize=12;startSize=8;endSize=8;" edge="1" parent="1" source="j3iOtMdaD4tU8map6Iq3-16" target="j3iOtMdaD4tU8map6Iq3-2">
          <mxGeometry relative="1" as="geometry" />
        </mxCell>
        <mxCell id="j3iOtMdaD4tU8map6Iq3-16" value="Tem" style="shape=rhombus;perimeter=rhombusPerimeter;whiteSpace=wrap;html=1;align=center;" vertex="1" parent="1">
          <mxGeometry x="-112" y="-152" width="120" height="60" as="geometry" />
        </mxCell>
        <mxCell id="j3iOtMdaD4tU8map6Iq3-21" style="edgeStyle=none;curved=1;rounded=0;orthogonalLoop=1;jettySize=auto;html=1;entryX=0;entryY=0.5;entryDx=0;entryDy=0;fontSize=12;startSize=8;endSize=8;" edge="1" parent="1" source="j3iOtMdaD4tU8map6Iq3-20" target="j3iOtMdaD4tU8map6Iq3-1">
          <mxGeometry relative="1" as="geometry" />
        </mxCell>
        <mxCell id="j3iOtMdaD4tU8map6Iq3-20" value="Tem" style="shape=rhombus;perimeter=rhombusPerimeter;whiteSpace=wrap;html=1;align=center;" vertex="1" parent="1">
          <mxGeometry x="172" y="-152" width="120" height="60" as="geometry" />
        </mxCell>
        <mxCell id="j3iOtMdaD4tU8map6Iq3-26" style="edgeStyle=none;curved=1;rounded=0;orthogonalLoop=1;jettySize=auto;html=1;entryX=0.5;entryY=1;entryDx=0;entryDy=0;fontSize=12;startSize=8;endSize=8;" edge="1" parent="1" source="j3iOtMdaD4tU8map6Iq3-24" target="j3iOtMdaD4tU8map6Iq3-2">
          <mxGeometry relative="1" as="geometry" />
        </mxCell>
        <mxCell id="j3iOtMdaD4tU8map6Iq3-30" style="edgeStyle=none;curved=1;rounded=0;orthogonalLoop=1;jettySize=auto;html=1;entryX=0.5;entryY=0;entryDx=0;entryDy=0;fontSize=12;startSize=8;endSize=8;" edge="1" parent="1" source="j3iOtMdaD4tU8map6Iq3-24" target="j3iOtMdaD4tU8map6Iq3-28">
          <mxGeometry relative="1" as="geometry" />
        </mxCell>
        <mxCell id="j3iOtMdaD4tU8map6Iq3-31" style="edgeStyle=none;curved=1;rounded=0;orthogonalLoop=1;jettySize=auto;html=1;entryX=0.5;entryY=0;entryDx=0;entryDy=0;fontSize=12;startSize=8;endSize=8;" edge="1" parent="1" source="j3iOtMdaD4tU8map6Iq3-24" target="j3iOtMdaD4tU8map6Iq3-29">
          <mxGeometry relative="1" as="geometry" />
        </mxCell>
        <mxCell id="j3iOtMdaD4tU8map6Iq3-24" value="D T" style="shape=step;perimeter=stepPerimeter;whiteSpace=wrap;html=1;fixedSize=1;" vertex="1" parent="1">
          <mxGeometry x="28.5" y="141" width="115" height="36" as="geometry" />
        </mxCell>
        <mxCell id="j3iOtMdaD4tU8map6Iq3-28" value="Pessoa Fisica" style="whiteSpace=wrap;html=1;align=center;" vertex="1" parent="1">
          <mxGeometry x="169" y="277" width="100" height="38" as="geometry" />
        </mxCell>
        <mxCell id="j3iOtMdaD4tU8map6Iq3-29" value="Pessoa Juridica" style="whiteSpace=wrap;html=1;align=center;" vertex="1" parent="1">
          <mxGeometry x="-64" y="277" width="100" height="36" as="geometry" />
        </mxCell>
        <mxCell id="j3iOtMdaD4tU8map6Iq3-32" value="CPF" style="ellipse;whiteSpace=wrap;html=1;align=center;" vertex="1" parent="1">
          <mxGeometry x="172" y="361" width="100" height="40" as="geometry" />
        </mxCell>
        <mxCell id="j3iOtMdaD4tU8map6Iq3-33" value="RG" style="ellipse;whiteSpace=wrap;html=1;align=center;" vertex="1" parent="1">
          <mxGeometry x="172" y="318" width="100" height="40" as="geometry" />
        </mxCell>
        <mxCell id="j3iOtMdaD4tU8map6Iq3-34" value="Data Nascimento" style="ellipse;whiteSpace=wrap;html=1;align=center;" vertex="1" parent="1">
          <mxGeometry x="175" y="403" width="100" height="40" as="geometry" />
        </mxCell>
        <mxCell id="j3iOtMdaD4tU8map6Iq3-35" value="Sexo" style="ellipse;whiteSpace=wrap;html=1;align=center;" vertex="1" parent="1">
          <mxGeometry x="180" y="445" width="100" height="32" as="geometry" />
        </mxCell>
        <mxCell id="j3iOtMdaD4tU8map6Iq3-37" value="Idade" style="ellipse;whiteSpace=wrap;html=1;align=center;dashed=1;" vertex="1" parent="1">
          <mxGeometry x="182" y="477" width="100" height="40" as="geometry" />
        </mxCell>
        <mxCell id="j3iOtMdaD4tU8map6Iq3-38" value="CNPJ" style="ellipse;whiteSpace=wrap;html=1;align=center;" vertex="1" parent="1">
          <mxGeometry x="-64" y="315" width="100" height="40" as="geometry" />
        </mxCell>
        <mxCell id="j3iOtMdaD4tU8map6Iq3-39" value="Inscricao estadual" style="ellipse;whiteSpace=wrap;html=1;align=center;" vertex="1" parent="1">
          <mxGeometry x="-78" y="355" width="114" height="40" as="geometry" />
        </mxCell>
        <mxCell id="j3iOtMdaD4tU8map6Iq3-40" value="Nome do responsavel" style="ellipse;whiteSpace=wrap;html=1;align=center;" vertex="1" parent="1">
          <mxGeometry x="-71" y="397" width="100" height="40" as="geometry" />
        </mxCell>
        <mxCell id="j3iOtMdaD4tU8map6Iq3-52" style="edgeStyle=none;curved=1;rounded=0;orthogonalLoop=1;jettySize=auto;html=1;entryX=0.5;entryY=0;entryDx=0;entryDy=0;fontSize=12;startSize=8;endSize=8;" edge="1" parent="1" source="j3iOtMdaD4tU8map6Iq3-42" target="j3iOtMdaD4tU8map6Iq3-51">
          <mxGeometry relative="1" as="geometry" />
        </mxCell>
        <mxCell id="j3iOtMdaD4tU8map6Iq3-42" value="Funcionario" style="whiteSpace=wrap;html=1;align=center;" vertex="1" parent="1">
          <mxGeometry x="-247" y="-442" width="100" height="40" as="geometry" />
        </mxCell>
        <mxCell id="j3iOtMdaD4tU8map6Iq3-45" value="Codigo" style="ellipse;whiteSpace=wrap;html=1;align=center;fontStyle=4;" vertex="1" parent="1">
          <mxGeometry x="-249" y="-485" width="100" height="40" as="geometry" />
        </mxCell>
        <mxCell id="j3iOtMdaD4tU8map6Iq3-46" value="Numero" style="ellipse;whiteSpace=wrap;html=1;align=center;" vertex="1" parent="1">
          <mxGeometry x="-251" y="-528" width="100" height="40" as="geometry" />
        </mxCell>
        <mxCell id="j3iOtMdaD4tU8map6Iq3-47" value="Nome" style="ellipse;whiteSpace=wrap;html=1;align=center;" vertex="1" parent="1">
          <mxGeometry x="-249" y="-561" width="100" height="33" as="geometry" />
        </mxCell>
        <mxCell id="j3iOtMdaD4tU8map6Iq3-48" value="Complemento" style="ellipse;whiteSpace=wrap;html=1;align=center;" vertex="1" parent="1">
          <mxGeometry x="-349" y="-437" width="100" height="40" as="geometry" />
        </mxCell>
        <mxCell id="j3iOtMdaD4tU8map6Iq3-49" value="Telefone" style="ellipse;whiteSpace=wrap;html=1;align=center;" vertex="1" parent="1">
          <mxGeometry x="-349" y="-395" width="100" height="40" as="geometry" />
        </mxCell>
        <mxCell id="j3iOtMdaD4tU8map6Iq3-50" value="Contato" style="ellipse;whiteSpace=wrap;html=1;align=center;" vertex="1" parent="1">
          <mxGeometry x="-349" y="-352" width="100" height="40" as="geometry" />
        </mxCell>
        <mxCell id="j3iOtMdaD4tU8map6Iq3-53" style="edgeStyle=none;curved=1;rounded=0;orthogonalLoop=1;jettySize=auto;html=1;entryX=0.5;entryY=0;entryDx=0;entryDy=0;fontSize=12;startSize=8;endSize=8;" edge="1" parent="1" source="j3iOtMdaD4tU8map6Iq3-51" target="j3iOtMdaD4tU8map6Iq3-8">
          <mxGeometry relative="1" as="geometry" />
        </mxCell>
        <mxCell id="j3iOtMdaD4tU8map6Iq3-51" value="Tem" style="shape=rhombus;perimeter=rhombusPerimeter;whiteSpace=wrap;html=1;align=center;" vertex="1" parent="1">
          <mxGeometry x="-259" y="-282" width="120" height="60" as="geometry" />
        </mxCell>
        <mxCell id="j3iOtMdaD4tU8map6Iq3-54" value="Departamento" style="whiteSpace=wrap;html=1;align=center;" vertex="1" parent="1">
          <mxGeometry x="31" y="-658" width="100" height="40" as="geometry" />
        </mxCell>
        <mxCell id="j3iOtMdaD4tU8map6Iq3-57" value="CodigoDp" style="ellipse;whiteSpace=wrap;html=1;align=center;" vertex="1" parent="1">
          <mxGeometry x="33" y="-618" width="100" height="40" as="geometry" />
        </mxCell>
        <mxCell id="j3iOtMdaD4tU8map6Iq3-58" value="Nome" style="ellipse;whiteSpace=wrap;html=1;align=center;" vertex="1" parent="1">
          <mxGeometry x="36" y="-578" width="100" height="40" as="geometry" />
        </mxCell>
        <mxCell id="j3iOtMdaD4tU8map6Iq3-60" style="edgeStyle=none;curved=1;rounded=0;orthogonalLoop=1;jettySize=auto;html=1;entryX=0;entryY=0.5;entryDx=0;entryDy=0;fontSize=12;startSize=8;endSize=8;" edge="1" parent="1" source="j3iOtMdaD4tU8map6Iq3-59" target="j3iOtMdaD4tU8map6Iq3-54">
          <mxGeometry relative="1" as="geometry" />
        </mxCell>
        <mxCell id="j3iOtMdaD4tU8map6Iq3-61" style="edgeStyle=none;curved=1;rounded=0;orthogonalLoop=1;jettySize=auto;html=1;exitX=0;exitY=0.5;exitDx=0;exitDy=0;entryX=1;entryY=0.5;entryDx=0;entryDy=0;fontSize=12;startSize=8;endSize=8;" edge="1" parent="1" source="j3iOtMdaD4tU8map6Iq3-59" target="j3iOtMdaD4tU8map6Iq3-42">
          <mxGeometry relative="1" as="geometry" />
        </mxCell>
        <mxCell id="j3iOtMdaD4tU8map6Iq3-59" value="Pertence" style="shape=rhombus;perimeter=rhombusPerimeter;whiteSpace=wrap;html=1;align=center;" vertex="1" parent="1">
          <mxGeometry x="-106" y="-668" width="120" height="60" as="geometry" />
        </mxCell>
        <mxCell id="j3iOtMdaD4tU8map6Iq3-93" style="edgeStyle=none;curved=1;rounded=0;orthogonalLoop=1;jettySize=auto;html=1;entryX=0;entryY=0.5;entryDx=0;entryDy=0;fontSize=12;startSize=8;endSize=8;" edge="1" parent="1" source="j3iOtMdaD4tU8map6Iq3-62" target="j3iOtMdaD4tU8map6Iq3-91">
          <mxGeometry relative="1" as="geometry" />
        </mxCell>
        <mxCell id="j3iOtMdaD4tU8map6Iq3-62" value="Produto" style="whiteSpace=wrap;html=1;align=center;" vertex="1" parent="1">
          <mxGeometry x="289" y="-442" width="100" height="40" as="geometry" />
        </mxCell>
        <mxCell id="j3iOtMdaD4tU8map6Iq3-64" value="Codigo" style="ellipse;whiteSpace=wrap;html=1;align=center;fontStyle=4;" vertex="1" parent="1">
          <mxGeometry x="289" y="-402" width="100" height="40" as="geometry" />
        </mxCell>
        <mxCell id="j3iOtMdaD4tU8map6Iq3-65" value="Descricao" style="ellipse;whiteSpace=wrap;html=1;align=center;" vertex="1" parent="1">
          <mxGeometry x="294" y="-362" width="100" height="40" as="geometry" />
        </mxCell>
        <mxCell id="j3iOtMdaD4tU8map6Iq3-68" value="Tipo" style="ellipse;whiteSpace=wrap;html=1;align=center;" vertex="1" parent="1">
          <mxGeometry x="289" y="-482" width="100" height="40" as="geometry" />
        </mxCell>
        <mxCell id="j3iOtMdaD4tU8map6Iq3-72" style="edgeStyle=none;curved=1;rounded=0;orthogonalLoop=1;jettySize=auto;html=1;entryX=0;entryY=0.5;entryDx=0;entryDy=0;fontSize=12;startSize=8;endSize=8;" edge="1" parent="1" source="j3iOtMdaD4tU8map6Iq3-69" target="j3iOtMdaD4tU8map6Iq3-70">
          <mxGeometry relative="1" as="geometry" />
        </mxCell>
        <mxCell id="j3iOtMdaD4tU8map6Iq3-69" value="Venda" style="whiteSpace=wrap;html=1;align=center;" vertex="1" parent="1">
          <mxGeometry x="28" y="-442" width="80" height="40" as="geometry" />
        </mxCell>
        <mxCell id="j3iOtMdaD4tU8map6Iq3-71" style="edgeStyle=none;curved=1;rounded=0;orthogonalLoop=1;jettySize=auto;html=1;entryX=0;entryY=0.5;entryDx=0;entryDy=0;fontSize=12;startSize=8;endSize=8;" edge="1" parent="1" source="j3iOtMdaD4tU8map6Iq3-70" target="j3iOtMdaD4tU8map6Iq3-62">
          <mxGeometry relative="1" as="geometry" />
        </mxCell>
        <mxCell id="j3iOtMdaD4tU8map6Iq3-70" value="Tem" style="shape=rhombus;perimeter=rhombusPerimeter;whiteSpace=wrap;html=1;align=center;" vertex="1" parent="1">
          <mxGeometry x="143.5" y="-452" width="120" height="60" as="geometry" />
        </mxCell>
        <mxCell id="j3iOtMdaD4tU8map6Iq3-74" style="edgeStyle=none;curved=1;rounded=0;orthogonalLoop=1;jettySize=auto;html=1;fontSize=12;startSize=8;endSize=8;" edge="1" parent="1" source="j3iOtMdaD4tU8map6Iq3-73" target="j3iOtMdaD4tU8map6Iq3-42">
          <mxGeometry relative="1" as="geometry" />
        </mxCell>
        <mxCell id="j3iOtMdaD4tU8map6Iq3-75" style="edgeStyle=none;curved=1;rounded=0;orthogonalLoop=1;jettySize=auto;html=1;exitX=1;exitY=0.5;exitDx=0;exitDy=0;entryX=0;entryY=0.5;entryDx=0;entryDy=0;fontSize=12;startSize=8;endSize=8;" edge="1" parent="1" source="j3iOtMdaD4tU8map6Iq3-73" target="j3iOtMdaD4tU8map6Iq3-69">
          <mxGeometry relative="1" as="geometry" />
        </mxCell>
        <mxCell id="j3iOtMdaD4tU8map6Iq3-73" value="Faz" style="shape=rhombus;perimeter=rhombusPerimeter;whiteSpace=wrap;html=1;align=center;" vertex="1" parent="1">
          <mxGeometry x="-123" y="-452" width="120" height="60" as="geometry" />
        </mxCell>
        <mxCell id="j3iOtMdaD4tU8map6Iq3-77" style="edgeStyle=none;curved=1;rounded=0;orthogonalLoop=1;jettySize=auto;html=1;entryX=0.5;entryY=1;entryDx=0;entryDy=0;fontSize=12;startSize=8;endSize=8;" edge="1" parent="1" source="j3iOtMdaD4tU8map6Iq3-76" target="j3iOtMdaD4tU8map6Iq3-69">
          <mxGeometry relative="1" as="geometry" />
        </mxCell>
        <mxCell id="j3iOtMdaD4tU8map6Iq3-78" style="edgeStyle=none;curved=1;rounded=0;orthogonalLoop=1;jettySize=auto;html=1;entryX=0.5;entryY=0;entryDx=0;entryDy=0;fontSize=12;startSize=8;endSize=8;" edge="1" parent="1" source="j3iOtMdaD4tU8map6Iq3-76" target="j3iOtMdaD4tU8map6Iq3-2">
          <mxGeometry relative="1" as="geometry" />
        </mxCell>
        <mxCell id="j3iOtMdaD4tU8map6Iq3-76" value="vendida" style="shape=rhombus;perimeter=rhombusPerimeter;whiteSpace=wrap;html=1;align=center;" vertex="1" parent="1">
          <mxGeometry x="18" y="-316" width="120" height="60" as="geometry" />
        </mxCell>
        <mxCell id="j3iOtMdaD4tU8map6Iq3-82" value="Preco" style="ellipse;whiteSpace=wrap;html=1;align=center;" vertex="1" parent="1">
          <mxGeometry x="20" y="-491" width="96" height="25" as="geometry" />
        </mxCell>
        <mxCell id="j3iOtMdaD4tU8map6Iq3-83" value="Data" style="ellipse;whiteSpace=wrap;html=1;align=center;" vertex="1" parent="1">
          <mxGeometry x="16" y="-509" width="105" height="18" as="geometry" />
        </mxCell>
        <mxCell id="j3iOtMdaD4tU8map6Iq3-84" value="Compra" style="whiteSpace=wrap;html=1;align=center;" vertex="1" parent="1">
          <mxGeometry x="578" y="-442" width="100" height="40" as="geometry" />
        </mxCell>
        <mxCell id="j3iOtMdaD4tU8map6Iq3-87" value="Codigo" style="ellipse;whiteSpace=wrap;html=1;align=center;fontStyle=4;" vertex="1" parent="1">
          <mxGeometry x="576" y="-402" width="100" height="40" as="geometry" />
        </mxCell>
        <mxCell id="j3iOtMdaD4tU8map6Iq3-88" value="Preco" style="ellipse;whiteSpace=wrap;html=1;align=center;" vertex="1" parent="1">
          <mxGeometry x="578" y="-360" width="100" height="40" as="geometry" />
        </mxCell>
        <mxCell id="j3iOtMdaD4tU8map6Iq3-90" value="Data" style="ellipse;whiteSpace=wrap;html=1;align=center;" vertex="1" parent="1">
          <mxGeometry x="582" y="-320" width="100" height="37" as="geometry" />
        </mxCell>
        <mxCell id="j3iOtMdaD4tU8map6Iq3-92" style="edgeStyle=none;curved=1;rounded=0;orthogonalLoop=1;jettySize=auto;html=1;entryX=0;entryY=0.5;entryDx=0;entryDy=0;fontSize=12;startSize=8;endSize=8;" edge="1" parent="1" source="j3iOtMdaD4tU8map6Iq3-91" target="j3iOtMdaD4tU8map6Iq3-84">
          <mxGeometry relative="1" as="geometry" />
        </mxCell>
        <mxCell id="j3iOtMdaD4tU8map6Iq3-91" value="Esta" style="shape=rhombus;perimeter=rhombusPerimeter;whiteSpace=wrap;html=1;align=center;" vertex="1" parent="1">
          <mxGeometry x="425" y="-447" width="120" height="60" as="geometry" />
        </mxCell>
        <mxCell id="j3iOtMdaD4tU8map6Iq3-94" value="Quantidade" style="ellipse;whiteSpace=wrap;html=1;align=center;" vertex="1" parent="1">
          <mxGeometry x="588" y="-282" width="100" height="40" as="geometry" />
        </mxCell>
        <mxCell id="j3iOtMdaD4tU8map6Iq3-96" value="CodProduto" style="ellipse;whiteSpace=wrap;html=1;align=center;" vertex="1" parent="1">
          <mxGeometry x="592" y="-242" width="100" height="40" as="geometry" />
        </mxCell>
        <mxCell id="j3iOtMdaD4tU8map6Iq3-97" value="ItemDaVenda" style="whiteSpace=wrap;html=1;align=center;" vertex="1" parent="1">
          <mxGeometry x="359" y="-658" width="100" height="40" as="geometry" />
        </mxCell>
        <mxCell id="j3iOtMdaD4tU8map6Iq3-98" value="CodidoVenda" style="ellipse;whiteSpace=wrap;html=1;align=center;fontStyle=4;" vertex="1" parent="1">
          <mxGeometry x="362" y="-618" width="100" height="40" as="geometry" />
        </mxCell>
        <mxCell id="j3iOtMdaD4tU8map6Iq3-99" value="CodidoVenda" style="ellipse;whiteSpace=wrap;html=1;align=center;fontStyle=4;" vertex="1" parent="1">
          <mxGeometry x="20" y="-465" width="97" height="23" as="geometry" />
        </mxCell>
        <mxCell id="j3iOtMdaD4tU8map6Iq3-102" value="CodProduto" style="ellipse;whiteSpace=wrap;html=1;align=center;fontStyle=4;" vertex="1" parent="1">
          <mxGeometry x="364" y="-577.5" width="100" height="40" as="geometry" />
        </mxCell>
        <mxCell id="j3iOtMdaD4tU8map6Iq3-104" value="Quantidade&lt;div&gt;&lt;br&gt;&lt;/div&gt;" style="ellipse;whiteSpace=wrap;html=1;align=center;" vertex="1" parent="1">
          <mxGeometry x="459" y="-655" width="100" height="40" as="geometry" />
        </mxCell>
        <mxCell id="j3iOtMdaD4tU8map6Iq3-106" style="edgeStyle=none;curved=1;rounded=0;orthogonalLoop=1;jettySize=auto;html=1;entryX=1;entryY=0.25;entryDx=0;entryDy=0;fontSize=12;startSize=8;endSize=8;" edge="1" parent="1" source="j3iOtMdaD4tU8map6Iq3-105" target="j3iOtMdaD4tU8map6Iq3-69">
          <mxGeometry relative="1" as="geometry">
            <Array as="points">
              <mxPoint x="216" y="-474" />
            </Array>
          </mxGeometry>
        </mxCell>
        <mxCell id="j3iOtMdaD4tU8map6Iq3-107" style="edgeStyle=none;curved=1;rounded=0;orthogonalLoop=1;jettySize=auto;html=1;entryX=0;entryY=0.5;entryDx=0;entryDy=0;fontSize=12;startSize=8;endSize=8;" edge="1" parent="1" source="j3iOtMdaD4tU8map6Iq3-105" target="j3iOtMdaD4tU8map6Iq3-97">
          <mxGeometry relative="1" as="geometry">
            <Array as="points">
              <mxPoint x="320" y="-585" />
            </Array>
          </mxGeometry>
        </mxCell>
        <mxCell id="j3iOtMdaD4tU8map6Iq3-105" value="Possui" style="shape=rhombus;perimeter=rhombusPerimeter;whiteSpace=wrap;html=1;align=center;" vertex="1" parent="1">
          <mxGeometry x="160" y="-615" width="120" height="60" as="geometry" />
        </mxCell>
      </root>
    </mxGraphModel>
  </diagram>
</mxfile>
